<?xml version="1.0" encoding="utf-8"?>
<svg xmlns="http://www.w3.org/2000/svg" viewBox="91.3911 168.7595 367.319 126.289" width="367.319px" height="126.289px" xmlns:bx="https://boxy-svg.com">
  <defs>
    <style bx:fonts="Bellota Text">@import url(https://fonts.googleapis.com/css2?family=Bellota+Text%3Aital%2Cwght%400%2C300%3B0%2C400%3B0%2C700%3B1%2C300%3B1%2C400%3B1%2C700&amp;display=swap);</style>
    <bx:export>
      <bx:file format="png" href="#object-2" path="tealford-logo-white.png"/>
    </bx:export>
  </defs>
  <g transform="matrix(1, 0, 0, 1, 139.320297, 141.555725)" id="object-2">
    <path d="M 120.868 181.317 L 324.958 181.317 L 324.958 300 L 120.868 300 Z M 157.3 278.554 L 157.3 233.534 L 167.407 233.534 L 167.407 226.699 L 157.3 226.699 L 157.3 221.913 C 157.3 218.788 157.853 216.656 158.96 215.517 C 160.067 214.378 161.955 213.808 164.624 213.808 C 166.251 213.808 167.977 213.971 169.8 214.296 L 171.118 206.63 C 168.123 206.044 165.389 205.751 162.915 205.751 C 159.074 205.751 156.087 206.459 153.955 207.875 C 151.823 209.291 150.334 211.138 149.487 213.417 C 148.868 215.11 148.559 217.698 148.559 221.181 L 148.559 226.699 L 140.796 226.699 L 140.796 233.534 L 148.559 233.534 L 148.559 278.554 Z M 177.683 272.743 C 182.159 277.398 188.026 279.726 195.285 279.726 C 199.81 279.726 203.985 278.668 207.81 276.552 C 211.635 274.436 214.548 271.466 216.55 267.641 C 218.552 263.816 219.553 258.567 219.553 251.894 C 219.553 243.658 217.291 237.204 212.766 232.533 C 208.241 227.862 202.414 225.527 195.285 225.527 C 188.872 225.527 183.436 227.447 178.977 231.288 C 173.638 235.911 170.969 243.023 170.969 252.626 C 170.969 261.383 173.207 268.088 177.683 272.743 Z M 184.348 237.734 C 187.245 234.446 190.891 232.802 195.285 232.802 C 199.615 232.802 203.237 234.454 206.15 237.758 C 209.063 241.062 210.52 245.92 210.52 252.333 C 210.52 259.136 209.071 264.198 206.174 267.519 C 203.277 270.839 199.647 272.499 195.285 272.499 C 190.891 272.499 187.245 270.847 184.348 267.543 C 181.451 264.239 180.002 259.267 180.002 252.626 C 180.002 245.985 181.451 241.021 184.348 237.734 Z M 238.544 278.554 L 238.544 251.406 C 238.544 247.695 239.032 244.277 240.009 241.152 C 240.66 239.101 241.75 237.497 243.28 236.342 C 244.81 235.187 246.535 234.609 248.456 234.609 C 250.605 234.609 252.753 235.244 254.901 236.513 L 257.929 228.359 C 254.869 226.471 251.858 225.527 248.896 225.527 C 246.845 225.527 244.965 226.113 243.256 227.284 C 241.547 228.456 239.683 230.881 237.665 234.56 L 237.665 226.699 L 229.755 226.699 L 229.755 278.554 Z M 304.952 278.554 L 304.952 206.972 L 296.212 206.972 L 296.212 232.656 C 294.682 230.54 292.696 228.823 290.255 227.504 C 287.814 226.186 285.03 225.527 281.905 225.527 C 277.641 225.527 273.784 226.65 270.333 228.896 C 266.882 231.142 264.294 234.373 262.569 238.588 C 260.844 242.803 259.981 247.499 259.981 252.675 C 259.981 257.981 260.933 262.677 262.838 266.762 C 264.742 270.847 267.427 274.029 270.894 276.308 C 274.361 278.587 278.161 279.726 282.296 279.726 C 288.676 279.726 293.51 277.154 296.798 272.011 L 296.798 278.554 Z M 272.945 237.587 C 275.566 234.397 278.829 232.802 282.735 232.802 C 286.739 232.802 290.108 234.462 292.843 237.783 C 295.577 241.103 296.944 246.311 296.944 253.408 C 296.944 259.853 295.601 264.646 292.916 267.787 C 290.23 270.928 286.967 272.499 283.126 272.499 C 279.317 272.499 276.013 270.855 273.214 267.568 C 270.414 264.28 269.014 259.316 269.014 252.675 C 269.014 245.806 270.324 240.777 272.945 237.587 Z" style="fill: rgb(255, 255, 255); stroke: rgb(255, 255, 255);"/>
    <text style="fill: rgb(255, 255, 255); font-family: &quot;Bellota Text&quot;; font-size: 100px; white-space: pre;" x="-42.361" y="278.606">teal</text>
  </g>
</svg>