<svg id="Capa_1" enable-background="new 0 0 512 512" height="512" viewBox="0 0 512 512" width="512" xmlns="http://www.w3.org/2000/svg"><g><path d="m508.642 226.616-252.642 25.661 29.082-246.316c7.119 0 13.372 4.718 15.319 11.569l22.582 79.324c1.731 6.078 6.892 10.559 13.155 11.425l154.558 21.15c7.582 1.04 13.362 7.325 13.753 14.979z" fill="#f9f3f1"/><path d="m491.232 333.023-113.423 77.212c-10.704 7.253-16.452 19.852-14.989 32.708l5.275 45.967c1.288 11.25-9.591 19.965-20.284 16.267l-49.531-17.183c-4.698-1.628-9.127-3.832-13.197-6.531l-35.97-173.695 35.97-81.152h223.56l3.297 64.726c.843 16.555-7.007 32.348-20.708 41.681z" fill="#fe646f"/><path d="m285.082 5.961v475.501c-8.293-5.491-15.113-13.052-19.728-22.036-16.74-32.605-48.903-95.199-65.241-126.929-6.119-11.971-18.461-19.481-31.905-19.481-6.593 0-12.929 1.793-18.389 5.058-5.46 3.255-10.075 7.943-13.186 13.732l-19.337 35.747c-6.851 12.64-25.023 12.568-31.76-.144l-84.187-158.286c-4.08-7.675 1.597-16.916 10.292-16.74l105.851 2.132c8.509.175 15.659-6.377 16.215-14.876l10.477-158.803c.556-8.365 7.51-14.876 15.896-14.876h125.002z" fill="#6cabca"/><path d="m33.923 209.123 83.826 157.597-.453.834c-6.851 12.64-25.023 12.568-31.76-.144l-84.187-158.287c-4.08-7.675 1.597-16.916 10.292-16.74l28.711.577c-6.377 2.122-9.87 9.694-6.429 16.163z" fill="#3692bc"/><path d="m192.654 5.961c-8.386 0-15.339 6.511-15.896 14.876l-10.477 158.803c-.556 8.499-7.706 15.051-16.215 14.876l-28.052-.567c6.397-1.741 11.239-7.376 11.693-14.309l10.477-158.803c.556-8.365 7.51-14.876 15.896-14.876h32.574z" fill="#3692bc"/><path d="m210.444 171.944 11.395 23.089c1.228 2.487 3.601 4.212 6.346 4.61l25.48 3.702c6.913 1.004 9.673 9.5 4.671 14.375l-18.438 17.972c-1.986 1.936-2.893 4.726-2.424 7.46l4.353 25.377c1.181 6.885-6.046 12.135-12.228 8.884l-22.79-11.982c-2.455-1.291-5.388-1.291-7.844 0l-22.79 11.982c-6.183 3.251-13.409-2-12.228-8.884l4.353-25.377c.469-2.734-.437-5.524-2.424-7.46l-18.438-17.972c-5.002-4.876-2.242-13.371 4.671-14.375l25.48-3.702c2.745-.399 5.118-2.123 6.346-4.61l11.395-23.089c3.09-6.264 12.022-6.264 15.114 0z" fill="#f9f3f1"/><path d="m186.378 233.596c0 12.29 2.977 23.9 8.252 34.12l-18.461 9.704c-6.181 3.245-13.413-2.009-12.228-8.89l4.358-25.373c.464-2.74-.443-5.522-2.431-7.459l-18.43-17.977c-5.007-4.873-2.246-13.372 4.667-14.371l25.476-3.709c2.751-.391 5.12-2.122 6.346-4.605l11.394-23.097c3.101-6.264 12.033-6.264 15.123 0l2.349 4.749c-16.155 13.661-26.415 34.09-26.415 56.908z" fill="#f3eae6"/></g></svg>